# xmcd
# 
# Track frame offsets:
#     150
#     13693
#     26468
#     44720
#     61523
#     81100
#     100376
#     116519
#     134502
#     153847
#     170742
#     185593
# 
# Disc length: 2719
# 
# Revision: 2
# Processed by: cddbd v1.5.2PL0 Copyright (c) Steve Scherf et al.
# Submitted via: fre:ac v1.0.17
# 
DISCID=9a0a9d0c
DTITLE=Garth Brooks - Hushabye Baby
DYEAR=2009
DGENRE=Country
TTITLE0=Ain't Going Down ('Til the Sun Comes Up)
TTITLE1=Longneck Bottle
TTITLE2=If Tomorrow Never Come
TTITLE3=Two Of a Kind, Workin' on a Full House
TTITLE4=Friends in Low Places
TTITLE5=The River
TTITLE6=You Move Me
TTITLE7=To Make You Feel My Love
TTITLE8=We Shall Be Free
TTITLE9=The Dance
TTITLE10=She's Every Woman
TTITLE11=Unanswered Prayers
EXTD=
EXTT0=
EXTT1=
EXTT2=
EXTT3=
EXTT4=
EXTT5=
EXTT6=
EXTT7=
EXTT8=
EXTT9=
EXTT10=
EXTT11=
PLAYORDER=
